# xmcd
#
# Track frame offsets:
#	150
#	15866
#	29766
#	39502
#	50835
#	68928
#	77485
#	95079
#	107111
#	121829
#	130747
#	139841
#	163541
#	176697
#
# Disc length: 2416 seconds
# Revision: 1
# Processed by: cddbd v1.5.2PL0 Copyright (c) Steve Scherf et al.
# Submitted via: dBpowerAMP V12.0
#
DISCID=bb096e0e
DTITLE=John Dummer's Famous Music Band - John Dummer's Famous Music Band
DYEAR=1970
DGENRE=Blues
TTITLE0=Lady Luck
TTITLE1=Changes
TTITLE2=Love Ain't Nothing But Sorrow
TTITLE3=Run Around
TTITLE4=Yes Sir, She's My Baby
TTITLE5=Boogie-Woogie Lullaby
TTITLE6=Coming Home
TTITLE7=Searching for You
TTITLE8=Nine by Nine
TTITLE9=Move Me, Don't Leave Me
TTITLE10=Going in the Out
TTITLE11=No Change Now
TTITLE12=Fine Looking Woman
TTITLE13=Green Leaves
EXTD=
EXTT0=
EXTT1=
EXTT2=
EXTT3=
EXTT4=
EXTT5=
EXTT6=
EXTT7=
EXTT8=
EXTT9=
EXTT10=
EXTT11=
EXTT12=
EXTT13=
PLAYORDER=
